<?xml version="1.0" encoding="UTF-8" standalone="no"?>
<!-- Created with Inkscape (http://www.inkscape.org/) -->

<svg
   xmlns:dc="http://purl.org/dc/elements/1.1/"
   xmlns:cc="http://creativecommons.org/ns#"
   xmlns:rdf="http://www.w3.org/1999/02/22-rdf-syntax-ns#"
   xmlns:svg="http://www.w3.org/2000/svg"
   xmlns="http://www.w3.org/2000/svg"
   xmlns:sodipodi="http://sodipodi.sourceforge.net/DTD/sodipodi-0.dtd"
   xmlns:inkscape="http://www.inkscape.org/namespaces/inkscape"
   width="52.934467mm"
   height="15.118985mm"
   viewBox="0 0 52.934466 15.118985"
   version="1.1"
   id="svg5845"
   inkscape:version="0.92.2 (5c3e80d, 2017-08-06)"
   sodipodi:docname="nfstock.svg">
  <defs
     id="defs5839" />
  <sodipodi:namedview
     id="base"
     pagecolor="#ffffff"
     bordercolor="#666666"
     borderopacity="1.0"
     inkscape:pageopacity="0.0"
     inkscape:pageshadow="2"
     inkscape:zoom="1.979899"
     inkscape:cx="45.623749"
     inkscape:cy="64.731711"
     inkscape:document-units="mm"
     inkscape:current-layer="layer1"
     showgrid="false"
     fit-margin-top="0"
     fit-margin-left="0"
     fit-margin-right="0"
     fit-margin-bottom="0"
     inkscape:window-width="1440"
     inkscape:window-height="838"
     inkscape:window-x="0"
     inkscape:window-y="25"
     inkscape:window-maximized="1" />
  <metadata
     id="metadata5842">
    <rdf:RDF>
      <cc:Work
         rdf:about="">
        <dc:format>image/svg+xml</dc:format>
        <dc:type
           rdf:resource="http://purl.org/dc/dcmitype/StillImage" />
        <dc:title></dc:title>
      </cc:Work>
    </rdf:RDF>
  </metadata>
  <g
     inkscape:label="Camada 1"
     inkscape:groupmode="layer"
     id="layer1"
     transform="translate(16.680485,-0.02294108)">
    <g
       id="g892"
       transform="matrix(0.53517006,0,0,-0.53517006,11.548235,3.6584073)">
      <path
         d="m 0,0 h -0.498 c -0.73,0 -1.33,-0.496 -1.374,-1.117 l -0.007,-0.004 v -11.931 c 0,-2.432 1.139,-3.65 3.407,-3.65 h 1.317 v 1.838 H 1.637 C 0.545,-14.864 0,-13.901 0,-12.637 v 7.512 H 3.512 V -3.27 H 0 Z"
         style="fill:#8d8f8f;fill-opacity:1;fill-rule:nonzero;stroke:none"
         id="path894"
         inkscape:connector-curvature="0" />
    </g>
    <g
       id="g896"
       transform="matrix(0.53517006,0,0,-0.53517006,31.782748,3.628597)">
      <path
         d="M 0,0 H -0.503 C -1.238,0 -1.845,-0.501 -1.89,-1.128 L -1.896,-1.132 V -16.758 H 0 v 11.363 1.874 z"
         style="fill:#8d8f8f;fill-opacity:1;fill-rule:nonzero;stroke:none"
         id="path898"
         inkscape:connector-curvature="0" />
    </g>
    <g
       id="g900"
       transform="matrix(0.53517006,0,0,-0.53517006,33.371023,9.0226297)">
      <path
         d="M 0,0 5.387,6.68 H 2.938 L -2.383,0 l 3.17,-4.075 2.07,-2.604 h 2.388 z"
         style="fill:#8d8f8f;fill-opacity:1;fill-rule:nonzero;stroke:none"
         id="path902"
         inkscape:connector-curvature="0" />
    </g>
    <g
       id="g904"
       transform="matrix(0.53517006,0,0,-0.53517006,17.909106,11.592943)">
      <path
         d="m 0,0 c -2.617,0 -4.741,2.173 -4.741,4.86 0,2.682 2.124,4.858 4.741,4.858 2.615,0 4.74,-2.176 4.74,-4.858 C 4.74,2.173 2.615,0 0,0 m 0,11.588 c -3.625,0 -6.565,-3.012 -6.565,-6.728 0,-3.717 2.94,-6.73 6.565,-6.73 3.622,0 6.564,3.013 6.564,6.73 0,3.716 -2.942,6.728 -6.564,6.728"
         style="fill:#8d8f8f;fill-opacity:1;fill-rule:nonzero;stroke:none"
         id="path906"
         inkscape:connector-curvature="0" />
    </g>
    <g
       id="g908"
       transform="matrix(0.53517006,0,0,-0.53517006,8.8932555,10.493867)">
      <path
         d="M 0,0 C -0.01,2.454 -1.161,3.726 -3.457,3.726 H -4.145 -7.486 V 3.719 H -8.03 c -1.021,0 -1.574,0.504 -1.656,1.582 -0.006,0.095 -0.01,0.45 -0.01,0.45 l 0.008,0.227 c 0.063,1.126 0.615,1.655 1.658,1.655 h 3.942 3.046 v 1.87 h -2.882 -4.182 c -2.231,0 -3.379,-1.2 -3.455,-3.516 L -11.562,5.86 h -0.001 V 5.562 l 0.002,-0.249 c 0.091,-2.284 1.241,-3.466 3.455,-3.466 h 4.026 v 0.007 h 0.546 c 1.11,0 1.665,-0.598 1.665,-1.88 v -0.152 c 0,-1.285 -0.555,-1.883 -1.665,-1.883 h -4.124 -3.124 V -3.93 h 2.74 4.585 c 2.296,0 3.446,1.27 3.457,3.718 z"
         style="fill:#8d8f8f;fill-opacity:1;fill-rule:nonzero;stroke:none"
         id="path910"
         inkscape:connector-curvature="0" />
    </g>
    <g
       id="g912"
       transform="matrix(0.53517006,0,0,-0.53517006,28.339193,11.591338)">
      <path
         d="m 0,0 h -3.128 c -2.543,0 -4.864,2.339 -4.864,4.886 0,2.549 2.321,4.84 4.864,4.84 H 0 1.458 v 1.911 H 0 -3.444 V 11.63 c -3.58,-0.167 -6.431,-3.12 -6.431,-6.744 0,-3.621 2.851,-6.576 6.431,-6.74 V -1.862 L 0,-1.879 H 1.458 V 0 Z"
         style="fill:#8d8f8f;fill-opacity:1;fill-rule:nonzero;stroke:none"
         id="path914"
         inkscape:connector-curvature="0" />
    </g>
    <g
       id="g916"
       transform="matrix(0.53517006,0,0,-0.53517006,-1.1139948,6.2527512)">
      <path
         d="m 0,0 h -6.87 v -4.05 h 4.894 L -3.057,-6.052 H -6.87 v -6.226 h -2.004 l 0.002,0.24 0.003,12.877 v 0.016 c 0.047,0.63 0.615,1.124 1.322,1.147 H 0 Z m -10.408,-12.278 h -1.882 l -0.073,0.096 -7.989,10.728 v -10.824 h -2.002 v 0.24 l 0.003,12.877 v 0.01 l 0.002,0.006 c 0.045,0.644 0.652,1.15 1.375,1.15 h 0.545 l 0.074,-0.099 1.08,-1.455 1.176,-1.581 5.689,-7.629 0.003,9.598 v 0.01 l 0.002,0.006 c 0.048,0.644 0.65,1.15 1.374,1.15 h 0.623 z M 0.846,6.337 h -24.328 c -0.734,0 -1.332,-0.602 -1.332,-1.332 v -20.283 c 0,-0.734 0.598,-1.332 1.332,-1.332 H 0.846 c 0.733,0 1.332,0.598 1.332,1.332 V 5.005 c 0,0.73 -0.599,1.332 -1.332,1.332"
         style="fill:#4a54a9;fill-opacity:1;fill-rule:nonzero;stroke:none"
         id="path918"
         inkscape:connector-curvature="0" />
    </g>
    <g
       id="g920"
       transform="matrix(0.53517006,0,0,-0.53517006,-0.73718127,2.1798931)">
      <path
         d="m 0,0 c 0.341,-0.136 0.319,-0.247 -0.047,-0.247 h -25.038 c -0.366,0 -0.902,0.185 -1.192,0.407 l -1.845,1.427 c -0.29,0.225 -0.228,0.407 0.14,0.407 h 22.315 c 0.366,0 0.944,-0.111 1.285,-0.247 z"
         style="fill:#8d8f8f;fill-opacity:1;fill-rule:nonzero;stroke:none"
         id="path922"
         inkscape:connector-curvature="0" />
    </g>
    <g
       id="g924"
       transform="matrix(0.53517006,0,0,-0.53517006,-14.984531,14.250492)">
      <path
         d="m 0,0 c 0,-0.366 -0.204,-0.447 -0.455,-0.18 l -2.259,2.417 c -0.25,0.268 -0.455,0.786 -0.455,1.153 v 20.172 c 0,0.365 0.228,0.469 0.506,0.231 l 2.157,-1.845 C -0.228,21.71 0,21.216 0,20.85 Z"
         style="fill:#8d8f8f;fill-opacity:1;fill-rule:nonzero;stroke:none"
         id="path926"
         inkscape:connector-curvature="0" />
    </g>
    <g
       id="g928"
       transform="matrix(0.53517006,0,0,-0.53517006,23.378919,0.0229946)">
      <path
         d="m 0,0 h -0.085 c -0.126,0 -0.227,-0.086 -0.236,-0.192 v -0.001 -2.056 c 0,-0.42 0.194,-0.629 0.586,-0.629 h 0.226 v 0.317 H 0.283 C 0.095,-2.561 0,-2.395 0,-2.177 v 1.285 h 0.606 v 0.319 H 0 Z"
         style="fill:#8d8f8f;fill-opacity:1;fill-rule:nonzero;stroke:none"
         id="path930"
         inkscape:connector-curvature="0" />
    </g>
    <g
       id="g932"
       transform="matrix(0.53517006,0,0,-0.53517006,33.215826,0.0229946)">
      <path
         d="m 0,0 h -0.086 c -0.126,0 -0.228,-0.086 -0.237,-0.192 v -0.001 -2.056 c 0,-0.42 0.195,-0.629 0.587,-0.629 H 0.49 v 0.317 H 0.282 C 0.094,-2.561 0,-2.395 0,-2.177 v 1.285 h 0.604 v 0.319 H 0 Z"
         style="fill:#8d8f8f;fill-opacity:1;fill-rule:nonzero;stroke:none"
         id="path934"
         inkscape:connector-curvature="0" />
    </g>
    <g
       id="g936"
       transform="matrix(0.53517006,0,0,-0.53517006,27.096905,0.67156858)">
      <path
         d="m 0,0 v -1.666 h 0.317 v 1.651 c 0,0.218 0.094,0.327 0.283,0.327 H 1.009 V 0.629 H 0.587 C 0.195,0.629 0,0.419 0,0"
         style="fill:#8d8f8f;fill-opacity:1;fill-rule:nonzero;stroke:none"
         id="path938"
         inkscape:connector-curvature="0" />
    </g>
    <g
       id="g940"
       transform="matrix(0.53517006,0,0,-0.53517006,29.340497,1.3933537)">
      <path
         d="m 0,0 c -0.431,0 -0.822,0.396 -0.822,0.823 0,0.43 0.391,0.817 0.822,0.817 H 0.525 V 0 Z M 0.525,2.325 V 1.962 h -0.58 V 1.96 C -0.658,1.933 -1.139,1.436 -1.139,0.823 c 0,-0.61 0.481,-1.108 1.084,-1.135 v -0.001 l 0.58,-0.004 H 0.846 V 2.532 H 0.764 C 0.633,2.532 0.525,2.439 0.525,2.325"
         style="fill:#8d8f8f;fill-opacity:1;fill-rule:nonzero;stroke:none"
         id="path942"
         inkscape:connector-curvature="0" />
    </g>
    <g
       id="g944"
       transform="matrix(0.53517006,0,0,-0.53517006,31.495842,1.3933537)">
      <path
         d="M 0,0 C -0.43,0 -0.821,0.396 -0.821,0.823 -0.821,1.253 -0.43,1.64 0,1.64 H 0.527 V 0 Z m 0.527,1.962 h -0.58 V 1.96 C -0.657,1.933 -1.138,1.436 -1.138,0.823 c 0,-0.61 0.481,-1.108 1.085,-1.135 v -0.001 l 0.58,-0.004 h 0.32 v 2.279 z"
         style="fill:#8d8f8f;fill-opacity:1;fill-rule:nonzero;stroke:none"
         id="path946"
         inkscape:connector-curvature="0" />
    </g>
    <g
       id="g948"
       transform="matrix(0.53517006,0,0,-0.53517006,20.128724,1.3933537)">
      <path
         d="M 0,0 C -0.43,0 -0.821,0.396 -0.821,0.823 -0.821,1.253 -0.43,1.64 0,1.64 H 0.527 V 0 Z M 0.527,1.962 H -0.054 V 1.96 C -0.657,1.933 -1.139,1.436 -1.139,0.823 c 0,-0.61 0.482,-1.108 1.085,-1.135 v -0.001 l 0.581,-0.004 h 0.319 v 2.279 z"
         style="fill:#8d8f8f;fill-opacity:1;fill-rule:nonzero;stroke:none"
         id="path950"
         inkscape:connector-curvature="0" />
    </g>
    <g
       id="g952"
       transform="matrix(0.53517006,0,0,-0.53517006,35.243047,1.3933537)">
      <path
         d="M 0,0 C -0.43,0 -0.821,0.396 -0.821,0.823 -0.821,1.253 -0.43,1.64 0,1.64 H 0.526 V 0 Z m 0.526,1.962 h -0.58 V 1.96 C -0.657,1.933 -1.139,1.436 -1.139,0.823 c 0,-0.61 0.482,-1.108 1.085,-1.135 v -0.001 l 0.58,-0.004 h 0.32 v 2.279 z"
         style="fill:#8d8f8f;fill-opacity:1;fill-rule:nonzero;stroke:none"
         id="path954"
         inkscape:connector-curvature="0" />
    </g>
    <g
       id="g956"
       transform="matrix(0.53517006,0,0,-0.53517006,24.978166,0.8336167)">
      <path
         d="M 0,0 C 0.091,0.358 0.408,0.623 0.788,0.623 1.167,0.623 1.485,0.358 1.578,0 Z m 1.91,-0.319 0.005,0.108 c 0,0.637 -0.505,1.152 -1.127,1.152 -0.622,0 -1.126,-0.515 -1.126,-1.152 0,-0.634 0.5,-1.148 1.12,-1.152 h 0.832 v 0.317 H 0.782 c -0.413,0.003 -0.752,0.318 -0.803,0.727 z"
         style="fill:#8d8f8f;fill-opacity:1;fill-rule:nonzero;stroke:none"
         id="path958"
         inkscape:connector-curvature="0" />
    </g>
    <g
       id="g960"
       transform="matrix(0.53517006,0,0,-0.53517006,21.85026,1.2292144)">
      <path
         d="m 0,0 v 1.538 0.373 0.343 h -0.11 c -0.116,0 -0.208,-0.078 -0.216,-0.174 L -0.327,2.079 v -2.132 c 0,-0.381 0.178,-0.571 0.533,-0.571 H 0.49 v 0.328 H 0.257 C 0.087,-0.296 0,-0.198 0,0"
         style="fill:#8d8f8f;fill-opacity:1;fill-rule:nonzero;stroke:none"
         id="path962"
         inkscape:connector-curvature="0" />
    </g>
  </g>
</svg>
